<svg xmlns="http://www.w3.org/2000/svg" viewBox="0 0 518.25 476.94">
  <defs>
    <style>
      .cls-2 { fill: #ffd95f; }
      .cls-3 { fill: #eccc33; fill-rule: evenodd; }
      .cls-5 { fill: none; }
    </style>
    <clipPath id="clippath">
      <rect class="cls-5" width="518.25" height="476.94"/>
    </clipPath>
  </defs>
  <g>
    <g clip-path="url(#clippath)">
      <path class="cls-3" d="m233.79,195.28l-2.44-3.15c-3.38,2.65-6.57,5.5-11.27,10.07-4.7,4.58-10.89,10.88-17.09,18.24-6.39,7.35-12.96,15.75-17.66,25.6-4.88,9.85-8.08,21.15-9.77,31.92-1.69,10.78-1.88,21.03,0,32.18,1.88,11.15,5.63,23.21,12.59,35.46,6.95,12.25,16.9,24.7,30.43,36.16,13.33,11.47,30.05,21.96,46.2,31.61,16.34,9.65,32.12,18.47,48.27,26.58l7.7-2.23c-4.51-2.47-9.2-4.94-15.21-8.17-6.01-3.24-13.53-7.24-22.35-12.02-8.64-4.78-18.6-10.35-29.11-16.56-10.33-6.21-21.23-13.06-30.99-20.88-9.77-7.82-18.41-16.61-25.36-26.83-6.95-10.21-12.4-21.85-15.78-33.66-3.38-11.81-4.51-23.8-3.38-36.11,1.31-12.31,5.07-24.95,10.71-35.82,5.45-10.88,12.77-20,20.47-28.54,7.51-8.54,15.59-16.51,24.04-23.84m-28.74-26.41l-2.26-2.82c-5.26,4.23-10.14,8.93-17.47,17.21-7.33,8.28-16.9,20.15-23.67,29.77-6.76,9.62-10.33,16.99-13.52,25.6-3.38,8.61-6.2,18.47-7.89,30.04-1.69,11.57-2.26,24.86-1.5,35.81.75,10.95,2.82,19.57,4.51,25.88,1.88,6.31,3.38,10.32,5.82,15.92,2.44,5.6,5.82,12.8,9.2,18.95,3.38,6.16,6.57,11.27,11.64,18,5.07,6.73,12.21,15.07,18.6,21.4,6.39,6.33,12.02,10.65,17.84,14.8,5.82,4.15,11.65,8.14,19.53,13.11,7.89,4.96,17.84,10.9,27.8,16.62l10.14-.14c-5.63-3-11.08-6.08-16.9-9.43-6.01-3.35-12.21-6.98-18.59-10.8-6.39-3.83-13.15-7.85-18.97-11.88-5.82-4.03-10.89-8.06-15.97-12.71-5.07-4.65-10.14-9.93-14.65-15.45-4.51-5.53-8.45-11.3-12.4-17.85-4.13-6.55-8.45-13.87-12.58-23.55-4.13-9.68-8.08-21.73-9.95-33.44-1.88-11.72-1.69-23.1-.75-33.66s2.82-20.28,4.88-28.45c2.25-8.17,4.51-14.77,8.08-21.81,3.57-7.03,8.45-14.49,13.9-22.05,5.45-7.55,11.65-15.2,17.47-21.79,6.01-6.59,11.64-12.11,17.66-17.26Zm74.38,277.81l24.42-3.75-18.41-9.93-6.01,13.68Zm0,.09l6.01-13.77-18.41-10.25-6.2,13.71,18.6,10.31Zm-37.57-21.05l6.57-13.56-17.84-11.05-6.95,13.13,18.22,11.47Zm-34-23.26l8.26-11.47c-6.2-5.57-12.02-11.14-17.66-16.73l-11.08,8.9c6.76,7.83,13.52,14.22,20.47,19.3Zm-39.63-46.32c1.88,3.46,3.94,7.07,6.2,10.68l11.27-8.83c-1.13-2.03-2.44-4.11-3.76-6.47-1.13-2.37-2.63-5.03-3.57-7.11-1.13-2.07-1.88-3.55-2.44-5.05l-12.59,6.68c1.5,3.32,3.01,6.63,4.89,10.09Zm-15.03-44.68c.75,4.11,1.5,7.82,2.44,11.52l13.33-4.03c-.94-4.81-1.88-9.62-2.44-13.05-.56-3.44-.56-5.5-.75-7.57h-13.9c.38,4.51.75,9.02,1.31,13.13Zm-1.5-33.59l13.71,2.47c.94-4.79,1.88-9.58,2.82-13.01.75-3.43,1.5-5.51,2.25-7.58l-12.77-5.6c-1.5,4.43-3,8.85-3.94,12.81-.94,3.95-1.5,7.44-2.07,10.92Zm12.96-42.23l12.4,5.75c1.88-2.95,3.94-5.86,5.63-8.33,1.88-2.47,3.38-4.5,4.51-5.85.94-1.36,1.5-2.04,2.07-2.71l-10.14-10.36c-2.44,3-4.7,6-7.14,9.58-2.44,3.58-4.89,7.75-7.33,11.92Zm-69.87-29.4c-8.26,3.19-15.4,7.08-23.1,12.96-3.76,2.94-7.51,6.28-11.27,9.92-3.76,3.63-7.51,7.55-10.89,11.76-3.57,4.21-6.76,8.7-9.39,12.48-2.44,3.78-4.13,6.83-5.82,9.99,1.31,8.16,2.63,16.28,4.32,23.77,1.69,7.49,3.57,14.35,5.07,19.35,1.5,5,2.63,8.14,3.57,11.22,2.25,6.26,4.7,12.75,7.89,19.46,1.5,3.41,3,6.78,5.45,11.24,2.25,4.46,5.45,9.99,7.89,14.04,2.63,4.04,4.32,6.59,6.2,9.09,3.38,4.86,7.14,9.63,11.08,14.3,2.07,2.26,4.13,4.48,7.33,7.72,3.38,3.24,7.89,7.49,12.77,11.6,4.88,4.11,10.33,8.08,15.59,11.53,5.26,3.45,10.33,6.38,15.97,9.24,5.45,2.86,11.65,5.65,17.84,8.09,6.39,2.45,12.58,4.56,19.16,6.39,13.52,3.54,27.61,6.92,41.32,8.44,7.14.69,14.27.66,19.53.65,5.45-.01,9.02-.01,12.58-.06-9.58-5.24-19.16-10.77-26.86-15.56-7.51-4.79-13.53-8.85-18.78-12.9-5.45-4.05-10.14-8.09-14.46-11.99-4.13-3.89-7.89-7.63-11.46-11.46-3.38-3.83-6.57-7.74-9.77-12.1-3.19-4.36-6.39-9.17-9.2-13.98s-5.45-9.62-7.7-14.59c-4.51-9.94-8.08-20.7-10.89-31.29-1.31-5.3-2.44-10.5-3.01-15.48-.57-4.98-.57-9.75-.57-14.75,0-9.97.19-21.06,2.44-31.83,2.07-10.51,5.26-20.88,9.77-31.2,2.44-5.04,5.07-9.97,7.14-13.8,2.25-3.83,3.94-6.54,6.01-9.15-4.32-1.76-8.83-3.3-13.15-4.62-4.51-1.32-8.83-2.42-12.96-2.79-4.13-.37-8.08-.02-12.4.02-4.32.05-9.01-.21-13.71.44-4.7.65-9.39,2.2-13.53,3.82Zm94.48-2.86l9.39,8.62c2.63-3.52,5.26-7.04,8.08-10.24,2.63-3.2,5.63-6.08,8.45-8.96l-9.2-10.19c-1.88,1.63-3.76,3.39-5.82,5.78-2.07,2.39-4.51,5.41-6.57,8-1.88,2.59-3.19,4.75-4.32,7Zm-149.7-57.02c-3.57.06-7.14.39-10.71.14-3.57-.26-6.95-1.1-10.14-2.41-3,1.17-6.2,2.35-9.01,3.84-2.82,1.49-5.26,3.31-7.51,5.12,3.76,1.47,7.51,2.93,12.58,4.32s11.46,2.7,18.03,4.01c-.94,10.18-1.5,20.39-1.88,29.49-.19,9.09,0,17.07,0,23.66.19,6.58.38,11.77.38,15.67v8.24c0,1.74.19,2.62.38,3.47,3.19-4.61,6.57-9.01,10.14-13.12,7.51-8.42,15.21-15.03,22.91-19.95,3.95-2.54,7.89-4.77,12.02-6.64,8.26-3.67,16.9-6.9,25.73-8.21,4.51-.58,9.2-.37,13.71-.34,4.32.03,8.64-.12,13.15.3,4.32.42,9.02,1.42,13.33,2.68,4.51,1.26,8.64,2.77,12.02,4.19s6.01,2.75,8.64,4.25c4.7-5.93,9.39-11.86,13.71-16.63,4.13-4.77,7.7-8.4,11.46-12.02-6.2-6.48-12.96-12.04-19.54-15.49-3.19-1.71-6.38-2.95-8.45-3.71-4.51-1.46-5.63-1.68-8.45-2.02-4.51-.01-8.83-.41-13.33.91-1.5.37-2.82.77-5.07,1.65-2.26.88-5.07,2.22-7.89,4-2.82,1.77-5.63,3.97-7.89,5.98-2.25,2.02-3.94,3.86-5.45,5.42-1.31,1.56-2.44,2.84-3.01,3.8-.75.96-1.13,1.6-1.31,2.28-.19-3.05-.19-6.11-.19-8.97s.19-5.52-.19-7.97c-.38-2.45-1.31-4.68-2.25-6.65-1.13-1.96-2.26-3.66-3.76-5.17-1.5-1.52-3.19-2.86-5.07-3.95,0,2.23-.19,4.46-.75,6.56-.56,2.1-1.5,4.07-2.63,5.77-1.13,1.7-2.26,3.13-3.94,4.35-4.7,3.88-10.33,4.72-15.78,2.95-1.88-.61-3.57-1.55-5.07-2.88-3.57-2.88-5.82-6.8-6.76-10.4-.75-3.54-1.13-7.16-.19-10.38-3.57,1.76-7.33,3-11.08,3.51-3.57.51-7.33.29-10.89.35Zm33.43-3.81c-1.13,2.02-1.13,6.26.19,8.69.38.6.75,1.25,1.13,1.83,2.82,2.75,4.7,2.88,7.51,2.68,1.31-.23,2.44-.88,3.57-1.81,1.13-.88,1.69-1.89,2.07-2.85,1.13-1.93,1.69-6.02-.38-9.39-.56-1.16-2.63-2.67-4.51-3.47-1.69-.69-2.25-.49-3.38-.39-1.32.35-3.19.82-5.07,3.02-.37.5-.75,1.04-1.13,1.7Zm16.9-20.53c-2.25,2.65-4.13,4.59-6.2,6.39,3.01.02,6.01.38,8.83,1.05,2.63.68,5.07,1.67,6.76,2.48,3.19,1.58,4.13,2.6,6.01,4.27.94.82,1.69,1.76,2.63,2.77.94,1.01,1.69,2.09,2.63,3.85,1.88,3.28,4.13,7.94,4.7,11.33,4.7-4.21,10.14-7.01,15.4-8.42,8.83-1.98,17.84-2.45,27.05,1.27,3.19,1.16,6.2,2.59,9.21,4.34,3,1.75,6.01,3.83,8.45,6.09,2.63,2.27,4.88,4.72,6.39,6.51,1.5,1.8,2.25,2.93,3.01,4.31,1.69,2.58,3.38,5.54,4.13,7.92l12.58-11.85c-3.19-5.22-6.76-10.27-10.52-14.95-3.57-4.68-7.33-8.97-11.27-13.07-15.21-16-33.43-28.3-50.15-33.56-3.94-1.25-7.7-2.23-10.89-2.7-3.01-.47-5.45-.45-7.51-.42-2.07.03-3.57.06-4.51.03-.94-.02-1.13-.1-1.5-.23-2.25,4.5-4.88,8.86-7.51,12.72-2.63,3.86-5.26,7.21-7.7,9.86Zm-29.11-16.39c-2.07.95-3.94,2.02-5.82,3.13-1.88,1.11-3.76,2.27-6.57,4.34-2.82,2.06-6.76,5.02-9.58,7.4-2.63,2.38-4.51,4.19-6.01,5.69-1.31,1.5-2.44,2.67-3,3.46-.75.79-.94,1.19-1.13,1.61,3.94.4,8.08.4,12.02.01,3.94-.39,7.51-1.16,11.08-2.29,3.57-1.13,7.14-2.63,10.33-4.44,3.19-1.81,6.38-3.92,9.2-6.35,3.01-2.43,5.82-5.16,7.89-7.55,2.25-2.38,3.94-4.41,5.26-6.21,1.32-1.79,2.26-3.35,3.01-4.49.75-1.14,1.31-1.86,1.69-2.59-5.07.98-10.33,2.12-13.9,3.08-3.76.96-6.01,1.74-8.08,2.56-2.25.82-4.32,1.67-6.39,2.62Zm292.64-58.11c-5.45,13.75-11.83,27.19-19.91,40.86-7.89,13.45-17.09,26.56-27.61,39.52-5.26,6.4-10.89,12.8-17.09,19.61-6.39,6.81-13.52,14.03-23.85,23.79-10.14,9.77-23.48,22.08-33.43,31.49-9.77,9.41-16.34,15.9-21.41,21.28-4.88,5.38-8.27,9.64-11.27,13.66-8.83,12.28-13.34,22.94-15.78,34.58-.94,3.97-1.5,7.96-1.88,10.75-.19,2.79-.19,4.38-.19,6.03.19,3.3,0,7.11.19,10.86.38,3.91,1.32,8.2,2.26,12.8.56,2.4,1.13,4.76,2.25,8.04,1.13,3.29,2.63,7.51,4.51,11.77,1.88,4.26,4.32,8.57,6.01,11.75,1.88,3.18,3.38,5.23,4.7,7.24,2.82,3.93,5.82,7.69,9.39,11.4,1.69,1.81,3.38,3.62,6.57,6.42,3.01,2.8,7.33,6.61,12.59,10.53,5.45,3.92,11.46,7.96,18.97,12.54,7.7,4.58,16.53,9.71,23.85,13.86,7.33,4.15,13.15,7.31,18.97,10.47,5.63,3.16,11.46,6.31,18.41,9.71,6.76,3.4,14.84,7.04,22.73,10.69,8.08,3.65,15.97,7.3,23.29,10.36,7.33,3.07,14.09,5.56,20.85,8.02,6.57,2.46,13.34,4.91,20.66,7.33,7.51,2.43,15.4,4.84,22.35,6.89,6.95,2.05,12.96,3.73,18.6,4.48,5.45.75,10.89.56,15.78.52,9.39.07,17.66-.05,26.48-2.29,4.32-1.03,8.45-2.37,12.58-4.03,4.13-1.66,8.27-3.64,12.21-5.85,3.95-2.21,7.51-4.64,10.9-7.32l-136.74-90.41c5.26-4.22,10.33-8.66,14.84-12.98,4.51-4.32,8.45-8.53,12.21-12.92,3.94-4.38,7.51-8.94,11.27-13.93,7.51-10.19,14.65-22.01,20.1-33.48,2.82-5.86,5.26-11.67,7.51-17.58,4.51-11.86,7.89-24.69,10.52-37.47,1.31-6.41,2.25-12.68,2.82-17.92.38-5.24.38-9.45,0-13.63-3.38,5.63-7.14,11.09-10.71,15.88-3.57,4.78-7.14,8.89-10.89,12.99-3.94,4.1-7.89,8.2-12.4,12.11-4.32,3.91-8.83,7.63-13.71,11.14-9.96,7.11-20.66,13.16-31.18,17.73-5.45,2.32-10.71,4.31-14.65,5.65-3.76,1.35-6.2,2.05-8.83,2.77-2.82.72-5.82,1.44-8.08,1.93-2.44.49-4.13.75-6.01.9,5.45-4.54,10.52-9.19,14.27-12.61,3.57-3.43,5.82-5.64,7.89-7.85,4.51-4.61,8.64-9.33,12.4-14.27,2.07-2.57,4.13-5.18,6.95-9.31,3.01-4.13,6.76-9.79,10.14-15.5,3.38-5.71,6.39-11.47,9.2-17.2,2.63-5.73,5.07-11.42,7.32-17.34,2.26-5.92,4.13-12.08,6.01-18.51,1.69-6.43,3.38-13.13,4.7-19.86,1.31-6.73,2.63-13.49,3.19-19.71.56-6.22.56-11.9.38-17.43,0-5.53-.19-10.91-.19-15.05v-9.92c-.94,4.03-2.06,8.01-3.38,12.23-1.5,4.22-3.38,8.69-5.63,13.47-4.7,9.75-11.65,20.48-20.1,31.02-4.13,5.37-8.83,10.76-14.09,16.39-5.26,5.64-11.27,11.53-16.15,16.18-5.07,4.65-9.02,8.07-12.21,10.8s-5.63,4.75-7.33,6.18c-1.88,1.43-3,2.27-4.13,3.08,7.33-9.54,13.15-19.64,17.66-29.71,2.25-5.15,4.32-10.35,6.2-15.77,1.69-5.42,3.38-11.06,4.7-17.14,2.82-11.87,5.26-25.95,5.82-39.21.38-6.46.19-12.58.19-18.7s0-12.25-.19-18.91c-.38-6.67-.94-13.87-1.88-21.44-.94-7.57-2.25-15.51-3.38-21.89-1.13-6.38-2.07-11.2-3.38-15.97-1.88,8.15-3.94,16.24-6.2,23.82-2.44,7.58-4.88,14.67-7.51,21.56Z"/>
    </g>
  </g>
</svg>